<svg viewBox="0 0 980 960" xmlns="http://www.w3.org/2000/svg" font-family="'JetBrains Mono', monospace">
  <defs>
    <marker id="arr" markerWidth="10" markerHeight="7" refX="9" refY="3.5" orient="auto">
      <polygon points="0 0, 10 3.5, 0 7" fill="#64748b"/>
    </marker>
    <marker id="arr-emerald" markerWidth="10" markerHeight="7" refX="9" refY="3.5" orient="auto">
      <polygon points="0 0, 10 3.5, 0 7" fill="#34d399"/>
    </marker>
    <marker id="arr-rose" markerWidth="10" markerHeight="7" refX="9" refY="3.5" orient="auto">
      <polygon points="0 0, 10 3.5, 0 7" fill="#fb7185"/>
    </marker>
    <marker id="arr-orange" markerWidth="10" markerHeight="7" refX="9" refY="3.5" orient="auto">
      <polygon points="0 0, 10 3.5, 0 7" fill="#fb923c"/>
    </marker>
    <marker id="arr-violet" markerWidth="10" markerHeight="7" refX="9" refY="3.5" orient="auto">
      <polygon points="0 0, 10 3.5, 0 7" fill="#a78bfa"/>
    </marker>
    <marker id="arr-cyan" markerWidth="10" markerHeight="7" refX="9" refY="3.5" orient="auto">
      <polygon points="0 0, 10 3.5, 0 7" fill="#22d3ee"/>
    </marker>
    <pattern id="grid2" width="40" height="40" patternUnits="userSpaceOnUse">
      <path d="M 40 0 L 0 0 0 40" fill="none" stroke="#1e293b" stroke-width="0.5"/>
    </pattern>
    <filter id="glow-orange">
      <feGaussianBlur stdDeviation="3" result="blur"/>
      <feMerge><feMergeNode in="blur"/><feMergeNode in="SourceGraphic"/></feMerge>
    </filter>
  </defs>

  <!-- Background -->
  <rect width="100%" height="100%" fill="#020617"/>
  <rect width="100%" height="100%" fill="url(#grid2)"/>

  <!-- ===== TITLE ===== -->
  <text x="490" y="32" fill="white" font-size="15" font-weight="700" text-anchor="middle">Versuchsaufbau — Iteratives CONVENTIONS.md-Experiment</text>
  <text x="490" y="48" fill="#94a3b8" font-size="9" text-anchor="middle">Optimierungsobjekt: genau eine Markdown-Datei · Operator: Mensch · Modell: MiniMax-M2.7</text>

  <!-- ===== PHASE 0: CALIBRATION (Cyan dashed) ===== -->
  <rect x="30" y="68" width="250" height="175" rx="10" fill="transparent" stroke="#22d3ee" stroke-width="1.5" stroke-dasharray="6,3"/>
  <text x="42" y="85" fill="#22d3ee" font-size="10" font-weight="600">Phase 0: Kalibrierung</text>

  <!-- SWE-bench pool -->
  <rect x="50" y="98" width="210" height="42" rx="6" fill="#0f172a"/>
  <rect x="50" y="98" width="210" height="42" rx="6" fill="rgba(120,53,15,0.3)" stroke="#fbbf24" stroke-width="1.5"/>
  <text x="155" y="118" fill="white" font-size="10" font-weight="600" text-anchor="middle">SWE-bench Lite</text>
  <text x="155" y="132" fill="#94a3b8" font-size="8" text-anchor="middle">Python Bugfix-Tasks · Repo @ base_commit</text>

  <!-- calibration runs -->
  <rect x="50" y="155" width="210" height="42" rx="6" fill="#0f172a"/>
  <rect x="50" y="155" width="210" height="42" rx="6" fill="rgba(8,51,68,0.4)" stroke="#22d3ee" stroke-width="1.5"/>
  <text x="155" y="175" fill="white" font-size="10" font-weight="600" text-anchor="middle">3 Runs je Kandidaten-Task</text>
  <text x="155" y="189" fill="#94a3b8" font-size="8" text-anchor="middle">6-10 Tasks · condition=calibration</text>

  <!-- selection -->
  <rect x="50" y="210" width="210" height="28" rx="6" fill="#0f172a"/>
  <rect x="50" y="210" width="210" height="28" rx="6" fill="rgba(8,51,68,0.3)" stroke="#22d3ee" stroke-width="1"/>
  <text x="155" y="228" fill="#22d3ee" font-size="9" font-weight="600" text-anchor="middle">→ selected_tasks.json (3 Tasks)</text>

  <!-- Arrows Phase 0 -->
  <line x1="155" y1="140" x2="155" y2="153" stroke="#22d3ee" stroke-width="1.5" marker-end="url(#arr-cyan)"/>
  <line x1="155" y1="197" x2="155" y2="208" stroke="#22d3ee" stroke-width="1.5" marker-end="url(#arr-cyan)"/>

  <!-- Arrow: selection → iteration -->
  <path d="M 260 224 Q 310 224 310 260 L 310 270" fill="none" stroke="#22d3ee" stroke-width="1.5" marker-end="url(#arr-cyan)"/>
  <text x="316" y="250" fill="#94a3b8" font-size="7">selected</text>

  <!-- ===== PHASE 1+: ITERATION LOOP (Emerald boundary) ===== -->
  <rect x="30" y="260" width="920" height="540" rx="12" fill="transparent" stroke="#34d399" stroke-width="1.5" stroke-dasharray="8,4"/>
  <text x="42" y="278" fill="#34d399" font-size="10" font-weight="600">Iteration N</text>

  <!-- ===== CONVENTIONS.md (Orange - Optimierungsobjekt) ===== -->
  <rect x="350" y="275" width="280" height="60" rx="8" fill="#0f172a"/>
  <!-- Glow background -->
  <rect x="350" y="275" width="280" height="60" rx="8" fill="rgba(251,146,60,0.15)" stroke="#fb923c" stroke-width="2" filter="url(#glow-orange)"/>
  <text x="490" y="296" fill="#fb923c" font-size="11" font-weight="700" text-anchor="middle">CONVENTIONS.md</text>
  <text x="490" y="312" fill="#94a3b8" font-size="8" text-anchor="middle">Optimierungsobjekt · 1 Mutation pro Iteration</text>
  <text x="490" y="326" fill="#94a3b8" font-size="8" text-anchor="middle">Goal · Rules · Heuristiken für den Agent</text>

  <!-- Mutation arrow -->
  <path d="M 630 305 L 700 305 L 700 340 L 630 340" fill="none" stroke="#fb923c" stroke-width="1.5" marker-end="url(#arr-orange)"/>
  <text x="700" y="320" fill="#fb923c" font-size="7" text-anchor="start">Mutation</text>

  <!-- ===== TWO CONDITIONS (Baseline vs Candidate) ===== -->
  <!-- Baseline -->
  <rect x="60" y="365" width="400" height="175" rx="8" fill="rgba(6,78,59,0.15)" stroke="#34d399" stroke-width="1" stroke-dasharray="4,2"/>
  <text x="72" y="382" fill="#34d399" font-size="9" font-weight="600">Baseline — CONVENTIONS.baseline.md</text>

  <!-- Baseline condition label -->
  <rect x="80" y="392" width="80" height="22" rx="4" fill="rgba(6,78,59,0.4)" stroke="#34d399" stroke-width="1.5"/>
  <text x="120" y="407" fill="white" font-size="9" font-weight="600" text-anchor="middle">baseline</text>

  <!-- Baseline 3×5 Grid -->
  <!-- Task T1 -->
  <text x="80" y="438" fill="#94a3b8" font-size="8">T1</text>
  <rect x="100" y="425" width="28" height="18" rx="3" fill="rgba(6,78,59,0.5)" stroke="#34d399" stroke-width="1"/>
  <text x="114" y="437" fill="#94a3b8" font-size="7" text-anchor="middle">R1</text>
  <rect x="132" y="425" width="28" height="18" rx="3" fill="rgba(6,78,59,0.5)" stroke="#34d399" stroke-width="1"/>
  <text x="146" y="437" fill="#94a3b8" font-size="7" text-anchor="middle">R2</text>
  <rect x="164" y="425" width="28" height="18" rx="3" fill="rgba(6,78,59,0.5)" stroke="#34d399" stroke-width="1"/>
  <text x="178" y="437" fill="#94a3b8" font-size="7" text-anchor="middle">R3</text>
  <rect x="196" y="425" width="28" height="18" rx="3" fill="rgba(6,78,59,0.5)" stroke="#34d399" stroke-width="1"/>
  <text x="210" y="437" fill="#94a3b8" font-size="7" text-anchor="middle">R4</text>
  <rect x="228" y="425" width="28" height="18" rx="3" fill="rgba(6,78,59,0.5)" stroke="#34d399" stroke-width="1"/>
  <text x="242" y="437" fill="#94a3b8" font-size="7" text-anchor="middle">R5</text>

  <!-- Task T2 -->
  <text x="80" y="463" fill="#94a3b8" font-size="8">T2</text>
  <rect x="100" y="450" width="28" height="18" rx="3" fill="rgba(6,78,59,0.5)" stroke="#34d399" stroke-width="1"/>
  <text x="114" y="462" fill="#94a3b8" font-size="7" text-anchor="middle">R1</text>
  <rect x="132" y="450" width="28" height="18" rx="3" fill="rgba(6,78,59,0.5)" stroke="#34d399" stroke-width="1"/>
  <text x="146" y="462" fill="#94a3b8" font-size="7" text-anchor="middle">R2</text>
  <rect x="164" y="450" width="28" height="18" rx="3" fill="rgba(6,78,59,0.5)" stroke="#34d399" stroke-width="1"/>
  <text x="178" y="462" fill="#94a3b8" font-size="7" text-anchor="middle">R3</text>
  <rect x="196" y="450" width="28" height="18" rx="3" fill="rgba(6,78,59,0.5)" stroke="#34d399" stroke-width="1"/>
  <text x="210" y="462" fill="#94a3b8" font-size="7" text-anchor="middle">R4</text>
  <rect x="228" y="450" width="28" height="18" rx="3" fill="rgba(6,78,59,0.5)" stroke="#34d399" stroke-width="1"/>
  <text x="242" y="462" fill="#94a3b8" font-size="7" text-anchor="middle">R5</text>

  <!-- Task T3 -->
  <text x="80" y="488" fill="#94a3b8" font-size="8">T3</text>
  <rect x="100" y="475" width="28" height="18" rx="3" fill="rgba(6,78,59,0.5)" stroke="#34d399" stroke-width="1"/>
  <text x="114" y="487" fill="#94a3b8" font-size="7" text-anchor="middle">R1</text>
  <rect x="132" y="475" width="28" height="18" rx="3" fill="rgba(6,78,59,0.5)" stroke="#34d399" stroke-width="1"/>
  <text x="146" y="487" fill="#94a3b8" font-size="7" text-anchor="middle">R2</text>
  <rect x="164" y="475" width="28" height="18" rx="3" fill="rgba(6,78,59,0.5)" stroke="#34d399" stroke-width="1"/>
  <text x="178" y="487" fill="#94a3b8" font-size="7" text-anchor="middle">R3</text>
  <rect x="196" y="475" width="28" height="18" rx="3" fill="rgba(6,78,59,0.5)" stroke="#34d399" stroke-width="1"/>
  <text x="210" y="487" fill="#94a3b8" font-size="7" text-anchor="middle">R4</text>
  <rect x="228" y="475" width="28" height="18" rx="3" fill="rgba(6,78,59,0.5)" stroke="#34d399" stroke-width="1"/>
  <text x="242" y="487" fill="#94a3b8" font-size="7" text-anchor="middle">R5</text>

  <text x="400" y="500" fill="#94a3b8" font-size="8" text-anchor="end">= 15 Runs</text>

  <!-- 15 runs label -->
  <text x="260" y="520" fill="#34d399" font-size="9" font-weight="600" text-anchor="middle">3 Tasks × 5 Runs = 15 Datenpunkte</text>

  <!-- Candidate -->
  <rect x="500" y="365" width="430" height="175" rx="8" fill="rgba(34,211,238,0.08)" stroke="#22d3ee" stroke-width="1" stroke-dasharray="4,2"/>
  <text x="512" y="382" fill="#22d3ee" font-size="9" font-weight="600">Candidate — CONVENTIONS.candidate_v1.md</text>

  <!-- Candidate condition label -->
  <rect x="520" y="392" width="110" height="22" rx="4" fill="rgba(8,51,68,0.4)" stroke="#22d3ee" stroke-width="1.5"/>
  <text x="575" y="407" fill="white" font-size="9" font-weight="600" text-anchor="middle">candidate_v1</text>

  <!-- Candidate 3×5 Grid -->
  <!-- Task T1 -->
  <text x="520" y="438" fill="#94a3b8" font-size="8">T1</text>
  <rect x="540" y="425" width="28" height="18" rx="3" fill="rgba(8,51,68,0.5)" stroke="#22d3ee" stroke-width="1"/>
  <text x="554" y="437" fill="#94a3b8" font-size="7" text-anchor="middle">R1</text>
  <rect x="572" y="425" width="28" height="18" rx="3" fill="rgba(8,51,68,0.5)" stroke="#22d3ee" stroke-width="1"/>
  <text x="586" y="437" fill="#94a3b8" font-size="7" text-anchor="middle">R2</text>
  <rect x="604" y="425" width="28" height="18" rx="3" fill="rgba(8,51,68,0.5)" stroke="#22d3ee" stroke-width="1"/>
  <text x="618" y="437" fill="#94a3b8" font-size="7" text-anchor="middle">R3</text>
  <rect x="636" y="425" width="28" height="18" rx="3" fill="rgba(8,51,68,0.5)" stroke="#22d3ee" stroke-width="1"/>
  <text x="650" y="437" fill="#94a3b8" font-size="7" text-anchor="middle">R4</text>
  <rect x="668" y="425" width="28" height="18" rx="3" fill="rgba(8,51,68,0.5)" stroke="#22d3ee" stroke-width="1"/>
  <text x="682" y="437" fill="#94a3b8" font-size="7" text-anchor="middle">R5</text>
  <!-- Task T2 -->
  <text x="520" y="463" fill="#94a3b8" font-size="8">T2</text>
  <rect x="540" y="450" width="28" height="18" rx="3" fill="rgba(8,51,68,0.5)" stroke="#22d3ee" stroke-width="1"/>
  <text x="554" y="462" fill="#94a3b8" font-size="7" text-anchor="middle">R1</text>
  <rect x="572" y="450" width="28" height="18" rx="3" fill="rgba(8,51,68,0.5)" stroke="#22d3ee" stroke-width="1"/>
  <text x="586" y="462" fill="#94a3b8" font-size="7" text-anchor="middle">R2</text>
  <rect x="604" y="450" width="28" height="18" rx="3" fill="rgba(8,51,68,0.5)" stroke="#22d3ee" stroke-width="1"/>
  <text x="618" y="462" fill="#94a3b8" font-size="7" text-anchor="middle">R3</text>
  <rect x="636" y="450" width="28" height="18" rx="3" fill="rgba(8,51,68,0.5)" stroke="#22d3ee" stroke-width="1"/>
  <text x="650" y="462" fill="#94a3b8" font-size="7" text-anchor="middle">R4</text>
  <rect x="668" y="450" width="28" height="18" rx="3" fill="rgba(8,51,68,0.5)" stroke="#22d3ee" stroke-width="1"/>
  <text x="682" y="462" fill="#94a3b8" font-size="7" text-anchor="middle">R5</text>
  <!-- Task T3 -->
  <text x="520" y="488" fill="#94a3b8" font-size="8">T3</text>
  <rect x="540" y="475" width="28" height="18" rx="3" fill="rgba(8,51,68,0.5)" stroke="#22d3ee" stroke-width="1"/>
  <text x="554" y="487" fill="#94a3b8" font-size="7" text-anchor="middle">R1</text>
  <rect x="572" y="475" width="28" height="18" rx="3" fill="rgba(8,51,68,0.5)" stroke="#22d3ee" stroke-width="1"/>
  <text x="586" y="487" fill="#94a3b8" font-size="7" text-anchor="middle">R2</text>
  <rect x="604" y="475" width="28" height="18" rx="3" fill="rgba(8,51,68,0.5)" stroke="#22d3ee" stroke-width="1"/>
  <text x="618" y="487" fill="#94a3b8" font-size="7" text-anchor="middle">R3</text>
  <rect x="636" y="475" width="28" height="18" rx="3" fill="rgba(8,51,68,0.5)" stroke="#22d3ee" stroke-width="1"/>
  <text x="650" y="487" fill="#94a3b8" font-size="7" text-anchor="middle">R4</text>
  <rect x="668" y="475" width="28" height="18" rx="3" fill="rgba(8,51,68,0.5)" stroke="#22d3ee" stroke-width="1"/>
  <text x="682" y="487" fill="#94a3b8" font-size="7" text-anchor="middle">R5</text>

  <!-- Candidate run_matrix info -->
  <rect x="720" y="395" width="195" height="90" rx="6" fill="#0f172a"/>
  <rect x="720" y="395" width="195" height="90" rx="6" fill="rgba(8,51,68,0.3)" stroke="#22d3ee" stroke-width="1"/>
  <text x="817" y="415" fill="white" font-size="9" font-weight="600" text-anchor="middle">run_matrix.py</text>
  <text x="817" y="430" fill="#94a3b8" font-size="8" text-anchor="middle">3 Tasks × 5 Runs × 2 Cond</text>
  <text x="817" y="443" fill="#94a3b8" font-size="8" text-anchor="middle">= 30 Runs pro Iteration</text>
  <text x="817" y="460" fill="#94a3b8" font-size="8" text-anchor="middle">symmetrisch: selbe 3 Tasks</text>
  <text x="817" y="473" fill="#22d3ee" font-size="8" text-anchor="middle">→ SQLite experiment.db</text>

  <!-- Arrows: CONVENTIONS → Conditions -->
  <path d="M 400 335 L 260 365" fill="none" stroke="#34d399" stroke-width="1.5" marker-end="url(#arr-emerald)"/>
  <path d="M 570 335 L 715 365" fill="none" stroke="#22d3ee" stroke-width="1.5" marker-end="url(#arr-cyan)"/>

  <!-- ===== ANALYZE (Violet) ===== -->
  <rect x="160" y="555" width="660" height="110" rx="8" fill="#0f172a"/>
  <rect x="160" y="555" width="660" height="110" rx="8" fill="rgba(76,29,149,0.3)" stroke="#a78bfa" stroke-width="1.5"/>
  <text x="490" y="578" fill="white" font-size="12" font-weight="700" text-anchor="middle">analyze.py — Statistischer Vergleich</text>

  <!-- Stats row -->
  <rect x="180" y="590" width="120" height="30" rx="4" fill="rgba(76,29,149,0.2)" stroke="#a78bfa" stroke-width="1"/>
  <text x="240" y="609" fill="#a78bfa" font-size="8" font-weight="600" text-anchor="middle">Wilson-CI</text>
  <text x="240" y="618" fill="#94a3b8" font-size="7" text-anchor="middle">task_success</text>

  <rect x="310" y="590" width="120" height="30" rx="4" fill="rgba(76,29,149,0.2)" stroke="#a78bfa" stroke-width="1"/>
  <text x="370" y="609" fill="#a78bfa" font-size="8" font-weight="600" text-anchor="middle">Bootstrap-CI</text>
  <text x="370" y="618" fill="#94a3b8" font-size="7" text-anchor="middle">pass_rate · diff_size</text>

  <rect x="440" y="590" width="120" height="30" rx="4" fill="rgba(76,29,149,0.2)" stroke="#a78bfa" stroke-width="1"/>
  <text x="500" y="609" fill="#a78bfa" font-size="8" font-weight="600" text-anchor="middle">Fisher + Mann-Whitney</text>
  <text x="500" y="618" fill="#94a3b8" font-size="7" text-anchor="middle">p-Wert · Effect Size</text>

  <rect x="570" y="590" width="120" height="30" rx="4" fill="rgba(76,29,149,0.2)" stroke="#a78bfa" stroke-width="1"/>
  <text x="630" y="609" fill="#a78bfa" font-size="8" font-weight="600" text-anchor="middle">Cliff's Delta</text>
  <text x="630" y="618" fill="#94a3b8" font-size="7" text-anchor="middle">non-parametric</text>

  <rect x="700" y="590" width="110" height="30" rx="4" fill="rgba(76,29,149,0.2)" stroke="#a78bfa" stroke-width="1"/>
  <text x="755" y="609" fill="#a78bfa" font-size="8" font-weight="600" text-anchor="middle">Pareto-Frontier</text>
  <text x="755" y="618" fill="#94a3b8" font-size="7" text-anchor="middle">success vs diff</text>

  <!-- Verdict -->
  <rect x="180" y="630" width="200" height="26" rx="4" fill="rgba(52,211,153,0.3)" stroke="#34d399" stroke-width="1.5"/>
  <text x="280" y="647" fill="#34d399" font-size="9" font-weight="600" text-anchor="middle">✓ CANDIDATE WINS → neue Baseline</text>

  <rect x="390" y="630" width="200" height="26" rx="4" fill="rgba(251,191,36,0.3)" stroke="#fbbf24" stroke-width="1.5"/>
  <text x="490" y="647" fill="#fbbf24" font-size="9" font-weight="600" text-anchor="middle">? NO DECISION → nächste Mutation</text>

  <rect x="600" y="630" width="200" height="26" rx="4" fill="rgba(248,113,113,0.3)" stroke="#f87171" stroke-width="1.5"/>
  <text x="700" y="647" fill="#f87171" font-size="9" font-weight="600" text-anchor="middle">✗ CANDIDATE LOSES → Baseline bleibt</text>

  <!-- Arrows: Conditions → Analyze -->
  <line x1="260" y1="540" x2="350" y2="553" stroke="#34d399" stroke-width="1.5" marker-end="url(#arr-emerald)"/>
  <line x1="715" y1="540" x2="630" y2="553" stroke="#22d3ee" stroke-width="1.5" marker-end="url(#arr-cyan)"/>

  <!-- ===== FEEDBACK LOOP (Candidate wins → new Iteration) ===== -->
  <path d="M 280 656 L 280 680 Q 280 700 310 700 L 800 700 Q 830 700 830 710 L 830 300 Q 830 285 800 285 L 640 285"
        fill="none" stroke="#34d399" stroke-width="2" marker-end="url(#arr-emerald)" stroke-dasharray="8,4"/>
  <text x="840" y="500" fill="#34d399" font-size="9" font-weight="600" writing-mode="tb">N+1</text>

  <!-- Pareto mini scatter -->
  <rect x="60" y="555" width="80" height="110" rx="6" fill="#0f172a"/>
  <rect x="60" y="555" width="80" height="110" rx="6" fill="rgba(76,29,149,0.15)" stroke="#a78bfa" stroke-width="1"/>
  <text x="100" y="570" fill="#a78bfa" font-size="7" text-anchor="middle" font-weight="600">Pareto</text>
  <!-- Axes -->
  <line x1="75" y1="650" x2="75" y2="575" stroke="#475569" stroke-width="0.5"/>
  <line x1="75" y1="650" x2="130" y2="650" stroke="#475569" stroke-width="0.5"/>
  <text x="102" y="658" fill="#475569" font-size="5" text-anchor="middle">diff_size</text>
  <text x="70" y="570" fill="#475569" font-size="5" text-anchor="end">succ</text>
  <!-- Frontier line -->
  <polyline points="82,600 90,585 110,580" fill="none" stroke="#a78bfa" stroke-width="1"/>
  <!-- Dots -->
  <circle cx="82" cy="600" r="2.5" fill="#34d399"/>
  <circle cx="90" cy="585" r="2.5" fill="#34d399"/>
  <circle cx="110" cy="580" r="2.5" fill="#34d399"/>
  <!-- Dominated dots -->
  <circle cx="95" cy="610" r="2" fill="#475569"/>
  <circle cx="105" cy="600" r="2" fill="#475569"/>
  <circle cx="120" cy="595" r="2" fill="#475569"/>
  <text x="100" y="665" fill="#94a3b8" font-size="5" text-anchor="middle">dominiert ·  ·  Frontier ●</text>

  <!-- ===== INFRA ERROR (Rose dashed) ===== -->
  <rect x="720" y="555" width="0" height="0" rx="0"/>
  <!-- error box overlapping bottom-right of iteration boundary -->
  <rect x="820" y="555" width="120" height="75" rx="8" fill="transparent" stroke="#fb7185" stroke-width="1" stroke-dasharray="4,4"/>
  <rect x="826" y="564" width="108" height="56" rx="6" fill="#0f172a"/>
  <rect x="826" y="564" width="108" height="56" rx="6" fill="rgba(136,19,55,0.4)" stroke="#fb7185" stroke-width="1.5"/>
  <text x="880" y="582" fill="#fb7185" font-size="9" font-weight="600" text-anchor="middle">Infra Error</text>
  <text x="880" y="596" fill="#94a3b8" font-size="7" text-anchor="middle">401 · ConnectionError</text>
  <text x="880" y="608" fill="#94a3b8" font-size="7" text-anchor="middle">Docker · Provider</text>
  <text x="880" y="617" fill="#fb7185" font-size="7" text-anchor="middle">→ excluded from stats</text>

  <!-- Dashed arrow from a run cell to error -->
  <path d="M 690 490 Q 720 530 826 570" fill="none" stroke="#fb7185" stroke-width="1.5" stroke-dasharray="5,5" marker-end="url(#arr-rose)"/>

  <!-- ===== LEGEND ===== -->
  <text x="60" y="750" fill="white" font-size="10" font-weight="600">Legende</text>

  <rect x="60" y="762" width="14" height="10" rx="2" fill="rgba(8,51,68,0.4)" stroke="#22d3ee" stroke-width="1"/>
  <text x="82" y="771" fill="#94a3b8" font-size="8">Kandidaten / Frontend</text>

  <rect x="220" y="762" width="14" height="10" rx="2" fill="rgba(6,78,59,0.4)" stroke="#34d399" stroke-width="1"/>
  <text x="242" y="771" fill="#94a3b8" font-size="8">Baseline / Backend</text>

  <rect x="370" y="762" width="14" height="10" rx="2" fill="rgba(120,53,15,0.3)" stroke="#fbbf24" stroke-width="1"/>
  <text x="392" y="771" fill="#94a3b8" font-size="8">Externe Tasks</text>

  <rect x="500" y="762" width="14" height="10" rx="2" fill="rgba(76,29,149,0.4)" stroke="#a78bfa" stroke-width="1"/>
  <text x="522" y="771" fill="#94a3b8" font-size="8">Analyse / Storage</text>

  <rect x="640" y="762" width="14" height="10" rx="2" fill="rgba(251,146,60,0.3)" stroke="#fb923c" stroke-width="1.5"/>
  <text x="662" y="771" fill="#94a3b8" font-size="8">Optimierungsobjekt</text>

  <line x1="770" y1="767" x2="790" y2="767" stroke="#fb7185" stroke-width="1.5" stroke-dasharray="4,4"/>
  <text x="797" y="771" fill="#94a3b8" font-size="8">Fehler-Pfad</text>

  <line x1="60" y1="790" x2="90" y2="790" stroke="#34d399" stroke-width="2" stroke-dasharray="8,4"/>
  <text x="97" y="794" fill="#94a3b8" font-size="8">Feedback-Loop (Iteration N → N+1)</text>

  <text x="60" y="815" fill="#475569" font-size="8">Harness Eval Dashboard · Iterativer Versuchsaufbau · MiniMax-M2.7 + SWE-bench Lite</text>
</svg>