<svg viewBox="0 0 960 820" xmlns="http://www.w3.org/2000/svg" font-family="'JetBrains Mono', monospace">
  <defs>
    <marker id="arr" markerWidth="10" markerHeight="7" refX="9" refY="3.5" orient="auto">
      <polygon points="0 0, 10 3.5, 0 7" fill="#64748b"/>
    </marker>
    <marker id="arr-rose" markerWidth="10" markerHeight="7" refX="9" refY="3.5" orient="auto">
      <polygon points="0 0, 10 3.5, 0 7" fill="#fb7185"/>
    </marker>
    <marker id="arr-amber" markerWidth="10" markerHeight="7" refX="9" refY="3.5" orient="auto">
      <polygon points="0 0, 10 3.5, 0 7" fill="#fbbf24"/>
    </marker>
    <pattern id="grid" width="40" height="40" patternUnits="userSpaceOnUse">
      <path d="M 40 0 L 0 0 0 40" fill="none" stroke="#1e293b" stroke-width="0.5"/>
    </pattern>
  </defs>

  <!-- Background -->
  <rect width="100%" height="100%" fill="#020617"/>
  <rect width="100%" height="100%" fill="url(#grid)"/>

  <!-- ===== ROW 1: Dashboard (Cyan) ===== -->
  <!-- Opaque bg to mask arrows -->
  <rect x="260" y="30" width="440" height="100" rx="6" fill="#0f172a"/>
  <rect x="260" y="30" width="440" height="100" rx="6" fill="rgba(8,51,68,0.4)" stroke="#22d3ee" stroke-width="1.5"/>
  <text x="480" y="58" fill="white" font-size="13" font-weight="700" text-anchor="middle">Dashboard</text>
  <text x="480" y="76" fill="#94a3b8" font-size="10" text-anchor="middle">FastAPI :8420</text>
  <text x="480" y="94" fill="#94a3b8" font-size="9" text-anchor="middle">Live Monitor · Debrief · Iteration · Trajectory</text>
  <text x="480" y="112" fill="#22d3ee" font-size="8" text-anchor="middle">Preflight-Checks · Error-Detail · Infra-Badge</text>

  <!-- ===== ROW 2: run_once / Aider (Emerald) ===== -->
  <!-- Boundary box -->
  <rect x="60" y="175" width="680" height="170" rx="10" fill="transparent" stroke="#34d399" stroke-width="1" stroke-dasharray="6,3"/>
  <text x="72" y="192" fill="#34d399" font-size="9" font-weight="600">run_once.py</text>

  <!-- Aider box -->
  <rect x="90" y="205" width="200" height="70" rx="6" fill="#0f172a"/>
  <rect x="90" y="205" width="200" height="70" rx="6" fill="rgba(6,78,59,0.4)" stroke="#34d399" stroke-width="1.5"/>
  <text x="190" y="230" fill="white" font-size="11" font-weight="600" text-anchor="middle">Aider</text>
  <text x="190" y="248" fill="#94a3b8" font-size="9" text-anchor="middle">--model minimax/MiniMax-M2.7</text>
  <text x="190" y="262" fill="#94a3b8" font-size="9" text-anchor="middle">--read CONVENTIONS.md</text>

  <!-- LiteLLM box -->
  <rect x="340" y="205" width="160" height="70" rx="6" fill="#0f172a"/>
  <rect x="340" y="205" width="160" height="70" rx="6" fill="rgba(6,78,59,0.4)" stroke="#34d399" stroke-width="1.5"/>
  <text x="420" y="230" fill="white" font-size="11" font-weight="600" text-anchor="middle">LiteLLM</text>
  <text x="420" y="248" fill="#94a3b8" font-size="9" text-anchor="middle">Provider Router</text>
  <text x="420" y="262" fill="#34d399" font-size="8" text-anchor="middle">MINIMAX_API_KEY</text>

  <!-- git diff box -->
  <rect x="540" y="205" width="170" height="70" rx="6" fill="#0f172a"/>
  <rect x="540" y="205" width="170" height="70" rx="6" fill="rgba(6,78,59,0.4)" stroke="#34d399" stroke-width="1.5"/>
  <text x="625" y="230" fill="white" font-size="11" font-weight="600" text-anchor="middle">git diff</text>
  <text x="625" y="248" fill="#94a3b8" font-size="9" text-anchor="middle">→ Patch</text>
  <text x="625" y="262" fill="#94a3b8" font-size="9" text-anchor="middle">→ predictions.jsonl</text>

  <!-- Arrows Row 2 -->
  <line x1="290" y1="240" x2="338" y2="240" stroke="#34d399" stroke-width="1.5" marker-end="url(#arr)"/>
  <text x="314" y="234" fill="#94a3b8" font-size="8" text-anchor="middle">route</text>
  <line x1="500" y1="240" x2="538" y2="240" stroke="#34d399" stroke-width="1.5" marker-end="url(#arr)"/>
  <text x="519" y="234" fill="#94a3b8" font-size="8" text-anchor="middle">diff</text>

  <!-- ===== MiniMax API (External/Cloud - Amber) ===== -->
  <rect x="760" y="195" width="170" height="90" rx="6" fill="#0f172a"/>
  <rect x="760" y="195" width="170" height="90" rx="6" fill="rgba(120,53,15,0.3)" stroke="#fbbf24" stroke-width="1.5"/>
  <text x="845" y="222" fill="white" font-size="11" font-weight="600" text-anchor="middle">MiniMax M2.7</text>
  <text x="845" y="240" fill="#94a3b8" font-size="9" text-anchor="middle">api.minimax.io/v1</text>
  <text x="845" y="258" fill="#fbbf24" font-size="8" text-anchor="middle">chat/completions</text>
  <text x="845" y="274" fill="#94a3b8" font-size="8" text-anchor="middle">Authorization: Bearer sk-cp-…</text>

  <!-- Arrow: LiteLLM → MiniMax -->
  <line x1="500" y1="220" x2="758" y2="220" stroke="#fbbf24" stroke-width="1.5" marker-end="url(#arr-amber)"/>
  <text x="630" y="214" fill="#fbbf24" font-size="8" text-anchor="middle">HTTPS POST</text>

  <!-- Arrow: MiniMax response -->
  <line x1="758" y1="260" x2="500" y2="260" stroke="#34d399" stroke-width="1.5" marker-end="url(#arr)"/>
  <text x="630" y="254" fill="#94a3b8" font-size="8" text-anchor="middle">tokens + completion</text>

  <!-- ===== ERROR PATH: Auth Fail (Rose dashed) ===== -->
  <rect x="770" y="310" width="155" height="62" rx="6" fill="#0f172a"/>
  <rect x="770" y="310" width="155" height="62" rx="6" fill="rgba(136,19,55,0.4)" stroke="#fb7185" stroke-width="1.5"/>
  <text x="847" y="334" fill="#fb7185" font-size="10" font-weight="600" text-anchor="middle">401 Auth Error</text>
  <text x="847" y="352" fill="#94a3b8" font-size="8" text-anchor="middle">authorized_error (1004)</text>
  <text x="847" y="364" fill="#94a3b8" font-size="8" text-anchor="middle">login fail · APIConnectionError</text>

  <!-- Dashed arrow: MiniMax → Error -->
  <path d="M 845 285 L 845 308" fill="none" stroke="#fb7185" stroke-width="1.5" stroke-dasharray="5,5" marker-end="url(#arr-rose)"/>
  <text x="862" y="300" fill="#fb7185" font-size="7">×</text>

  <!-- Dashed arrow: Error → Dashboard (error_detail) -->
  <path d="M 847 310 L 847 120 Q 847 80 700 80" fill="none" stroke="#fb7185" stroke-width="1.5" stroke-dasharray="5,5" marker-end="url(#arr-rose)"/>
  <text x="800" y="108" fill="#fb7185" font-size="8">error_detail</text>

  <!-- infra_error badge -->
  <rect x="170" y="310" width="190" height="28" rx="4" fill="rgba(136,19,55,0.5)" stroke="#fb7185" stroke-width="1"/>
  <text x="265" y="328" fill="#fb7185" font-size="9" font-weight="600" text-anchor="middle">⚠ infrastructure_error = true</text>
  <text x="265" y="350" fill="#94a3b8" font-size="8" text-anchor="middle">→ excluded from analyze.py stats</text>

  <!-- Arrow: Dashboard → run_once -->
  <line x1="480" y1="130" x2="480" y2="173" stroke="#22d3ee" stroke-width="1.5" marker-end="url(#arr)"/>
  <text x="494" y="155" fill="#94a3b8" font-size="8">launch /</text>
  <text x="494" y="165" fill="#94a3b8" font-size="8">monitor</text>

  <!-- Arrow: run_once → Eval -->
  <line x1="400" y1="345" x2="400" y2="428" stroke="#34d399" stroke-width="1.5" marker-end="url(#arr)"/>

  <!-- ===== ROW 3: swebench Docker Eval (Amber) ===== -->
  <rect x="120" y="430" width="720" height="130" rx="10" fill="transparent" stroke="#fbbf24" stroke-width="1" stroke-dasharray="8,4"/>
  <text x="132" y="447" fill="#fbbf24" font-size="9" font-weight="600">swebench Docker Evaluation (--skip-eval überspringt diesen Block)</text>

  <!-- predictions.jsonl -->
  <rect x="145" y="460" width="140" height="50" rx="6" fill="#0f172a"/>
  <rect x="145" y="460" width="140" height="50" rx="6" fill="rgba(120,53,15,0.3)" stroke="#fbbf24" stroke-width="1.5"/>
  <text x="215" y="482" fill="white" font-size="10" font-weight="600" text-anchor="middle">predictions.jsonl</text>
  <text x="215" y="498" fill="#94a3b8" font-size="8" text-anchor="middle">instance_id + patch</text>

  <!-- 3-Layer Image -->
  <rect x="320" y="460" width="160" height="50" rx="6" fill="#0f172a"/>
  <rect x="320" y="460" width="160" height="50" rx="6" fill="rgba(120,53,15,0.3)" stroke="#fbbf24" stroke-width="1.5"/>
  <text x="400" y="478" fill="white" font-size="10" font-weight="600" text-anchor="middle">Docker Images</text>
  <text x="400" y="493" fill="#94a3b8" font-size="7" text-anchor="middle">Base → Env → Instance</text>
  <text x="400" y="504" fill="#fbbf24" font-size="7" text-anchor="middle">3-Layer Build (cached)</text>

  <!-- eval.sh -->
  <rect x="515" y="460" width="140" height="50" rx="6" fill="#0f172a"/>
  <rect x="515" y="460" width="140" height="50" rx="6" fill="rgba(120,53,15,0.3)" stroke="#fbbf24" stroke-width="1.5"/>
  <text x="585" y="478" fill="white" font-size="10" font-weight="600" text-anchor="middle">eval.sh</text>
  <text x="585" y="493" fill="#94a3b8" font-size="7" text-anchor="middle">git apply + pytest</text>
  <text x="585" y="503" fill="#94a3b8" font-size="7" text-anchor="middle">FAIL_TO_PASS</text>

  <!-- report.json -->
  <rect x="690" y="460" width="130" height="50" rx="6" fill="#0f172a"/>
  <rect x="690" y="460" width="130" height="50" rx="6" fill="rgba(120,53,15,0.3)" stroke="#fbbf24" stroke-width="1.5"/>
  <text x="755" y="478" fill="white" font-size="10" font-weight="600" text-anchor="middle">report.json</text>
  <text x="755" y="493" fill="#94a3b8" font-size="8" text-anchor="middle">resolved: bool</text>
  <text x="755" y="503" fill="#94a3b8" font-size="8" text-anchor="middle">tests_status</text>

  <!-- Arrows within Eval -->
  <line x1="285" y1="485" x2="318" y2="485" stroke="#fbbf24" stroke-width="1.5" marker-end="url(#arr-amber)"/>
  <line x1="480" y1="485" x2="513" y2="485" stroke="#fbbf24" stroke-width="1.5" marker-end="url(#arr-amber)"/>
  <line x1="655" y1="485" x2="688" y2="485" stroke="#fbbf24" stroke-width="1.5" marker-end="url(#arr-amber)"/>

  <!-- ===== ROW 4: Storage (Violet) ===== -->
  <rect x="200" y="600" width="290" height="80" rx="6" fill="#0f172a"/>
  <rect x="200" y="600" width="290" height="80" rx="6" fill="rgba(76,29,149,0.4)" stroke="#a78bfa" stroke-width="1.5"/>
  <text x="345" y="625" fill="white" font-size="12" font-weight="600" text-anchor="middle">SQLite</text>
  <text x="345" y="643" fill="#94a3b8" font-size="9" text-anchor="middle">experiment.db</text>
  <text x="345" y="658" fill="#94a3b8" font-size="8" text-anchor="middle">runs · conventions · analysis · comparisons</text>
  <text x="345" y="672" fill="#a78bfa" font-size="8" text-anchor="middle">infrastructure_error · error_detail · failure_kind</text>

  <rect x="530" y="600" width="240" height="80" rx="6" fill="#0f172a"/>
  <rect x="530" y="600" width="240" height="80" rx="6" fill="rgba(76,29,149,0.4)" stroke="#a78bfa" stroke-width="1.5"/>
  <text x="650" y="625" fill="white" font-size="12" font-weight="600" text-anchor="middle">Artifacts</text>
  <text x="650" y="643" fill="#94a3b8" font-size="9" text-anchor="middle">agent_stdout.log · agent_stderr.log</text>
  <text x="650" y="658" fill="#94a3b8" font-size="9" text-anchor="middle">git_diff.patch · run_meta.json</text>
  <text x="650" y="672" fill="#94a3b8" font-size="9" text-anchor="middle">tests.json · judge_input.json</text>

  <!-- Arrow: Eval → Storage -->
  <line x1="400" y1="560" x2="345" y2="598" stroke="#a78bfa" stroke-width="1.5" marker-end="url(#arr)"/>
  <line x1="755" y1="510" x2="650" y2="598" stroke="#a78bfa" stroke-width="1.5" marker-end="url(#arr)"/>

  <!-- ===== Judge (Rose dashed - separate step) ===== -->
  <rect x="60" y="595" width="120" height="90" rx="8" fill="transparent" stroke="#fb7185" stroke-width="1" stroke-dasharray="4,4"/>
  <rect x="70" y="610" width="100" height="55" rx="6" fill="#0f172a"/>
  <rect x="70" y="610" width="100" height="55" rx="6" fill="rgba(136,19,55,0.4)" stroke="#fb7185" stroke-width="1.5"/>
  <text x="120" y="632" fill="#fb7185" font-size="10" font-weight="600" text-anchor="middle">Judge</text>
  <text x="120" y="648" fill="#94a3b8" font-size="8" text-anchor="middle">harness-judge</text>
  <text x="120" y="660" fill="#94a3b8" font-size="8" text-anchor="middle">separat!</text>
  <text x="120" y="604" fill="#fb7185" font-size="8" text-anchor="middle">optional</text>

  <!-- Dashed arrow: Judge → SQLite -->
  <path d="M 170 645 Q 185 645 198 640" fill="none" stroke="#fb7185" stroke-width="1.5" stroke-dasharray="5,5" marker-end="url(#arr-rose)"/>
  <text x="184" y="638" fill="#fb7185" font-size="7">judge_score</text>

  <!-- ===== ROW 2 → ROW 4 direct (skip_eval path) ===== -->
  <path d="M 625 275 L 625 400 Q 625 420 600 420 L 560 420 Q 540 420 540 440 L 540 460" fill="none" stroke="#34d399" stroke-width="1.5" stroke-dasharray="6,3" marker-end="url(#arr)"/>
  <text x="640" y="385" fill="#34d399" font-size="8" text-anchor="start">skip_eval?</text>
  <text x="640" y="397" fill="#94a3b8" font-size="7" text-anchor="start">direct to</text>
  <text x="640" y="407" fill="#94a3b8" font-size="7" text-anchor="start">artifacts</text>

  <!-- ===== LEGEND ===== -->
  <text x="60" y="730" fill="white" font-size="10" font-weight="600">Legende</text>

  <rect x="60" y="742" width="14" height="10" rx="2" fill="rgba(8,51,68,0.4)" stroke="#22d3ee" stroke-width="1"/>
  <text x="82" y="751" fill="#94a3b8" font-size="8">Frontend / Dashboard</text>

  <rect x="200" y="742" width="14" height="10" rx="2" fill="rgba(6,78,59,0.4)" stroke="#34d399" stroke-width="1"/>
  <text x="222" y="751" fill="#94a3b8" font-size="8">Backend / Agent</text>

  <rect x="340" y="742" width="14" height="10" rx="2" fill="rgba(120,53,15,0.3)" stroke="#fbbf24" stroke-width="1"/>
  <text x="362" y="751" fill="#94a3b8" font-size="8">Cloud / Eval</text>

  <rect x="470" y="742" width="14" height="10" rx="2" fill="rgba(76,29,149,0.4)" stroke="#a78bfa" stroke-width="1"/>
  <text x="492" y="751" fill="#94a3b8" font-size="8">Storage</text>

  <rect x="570" y="742" width="14" height="10" rx="2" fill="rgba(136,19,55,0.4)" stroke="#fb7185" stroke-width="1"/>
  <text x="592" y="751" fill="#94a3b8" font-size="8">Auth / Error</text>

  <line x1="700" y1="747" x2="730" y2="747" stroke="#fb7185" stroke-width="1.5" stroke-dasharray="4,4"/>
  <text x="738" y="751" fill="#94a3b8" font-size="8">Fehler-Pfad</text>

  <line x1="60" y1="772" x2="90" y2="772" stroke="#34d399" stroke-width="1.5" stroke-dasharray="6,3"/>
  <text x="98" y="776" fill="#94a3b8" font-size="8">Optionaler Pfad (--skip-eval)</text>

  <text x="60" y="800" fill="#475569" font-size="8">Harness Eval Dashboard · Eval-Pipeline · MiniMax-M2.7 · SWE-bench Lite</text>
</svg>